<svg class="hidden" xmlns="http://www.w3.org/2000/svg">
		<symbol  viewBox="0 0 80 81" id="deliv">
			 <path
                                d="M78.4959 60.0106C78.0175 59.6542 77.4564 59.4256 76.8654 59.3463C76.2744 59.267 75.673 59.3396 75.1178 59.5573C75.3084 58.8373 75.2647 58.0752 74.9931 57.3817C74.7215 56.6883 74.2361 56.0995 73.6074 55.7011C71.9661 54.4405 69.4687 55.517 65.3301 57.2981C62.1819 58.7122 58.9427 59.9141 55.6344 60.8959C55.0915 60.1189 54.3687 59.4851 53.5279 59.0485C52.6871 58.6119 51.7532 58.3856 50.806 58.3888C47.6057 58.5041 44.4011 58.3928 41.2164 58.0559V51.6077H59.3981C64.004 51.5964 68.4175 49.7579 71.6718 46.4949C74.9259 43.2319 76.7553 38.8106 76.7591 34.1998C76.7591 33.8777 76.6312 33.5687 76.4037 33.3409C76.1762 33.1132 75.8676 32.9852 75.5458 32.9852H56.165C53.1429 32.9891 50.1741 33.7828 47.5523 35.2876C44.9306 36.7924 42.7466 38.9563 41.2164 41.5652V19.2211H59.3981C64.004 19.2098 68.4175 17.3713 71.6718 14.1083C74.9259 10.8453 76.7553 6.42402 76.7591 1.81322C76.7582 1.49381 76.632 1.18753 76.4077 0.960352C76.1834 0.733174 75.879 0.603274 75.5599 0.598633L56.165 0.598633C51.5567 0.606133 47.1395 2.44303 43.8822 5.70642C40.6249 8.96981 38.7936 13.3932 38.7899 18.0065V25.3861C37.2615 22.7745 35.0783 20.6078 32.4564 19.1005C29.8345 17.5931 26.8648 16.7973 23.8413 16.7919H4.44637C4.12487 16.7929 3.81681 16.9211 3.58947 17.1487C3.36214 17.3763 3.23401 17.6847 3.23308 18.0065C3.23588 22.62 5.06692 27.044 8.32438 30.3076C11.5818 33.5712 15.9996 35.4078 20.6082 35.4144H38.7899V57.6098C30.6152 54.3591 33.6042 52.9639 11.5103 52.7231L1.41491 51.1154C1.2411 51.0885 1.06354 51.0993 0.894266 51.1471C0.724988 51.1949 0.567945 51.2785 0.433771 51.3924C0.299598 51.5062 0.191428 51.6476 0.116589 51.8069C0.0417503 51.9662 0.00198955 52.1398 8.97551e-08 52.3159V74.1607C-0.000110964 74.4494 0.102837 74.7287 0.29028 74.9482C0.477723 75.1676 0.737326 75.3128 1.02228 75.3576L11.1248 76.9652C26.229 82.3193 58.4006 83.6401 77.0456 67.5601C78.3296 66.8165 82.065 62.8328 78.4959 60.0106ZM62.6099 8.69705C56.211 8.41376 46.5436 8.83515 42.3342 12.3089C43.4595 9.56993 45.3707 7.22635 47.8262 5.57439C50.2816 3.92243 53.1712 3.03623 56.1296 3.0278H74.283C73.9768 6.77467 72.2751 10.2695 69.5153 12.8191C66.7555 15.3686 63.1393 16.7867 59.3839 16.7919H41.4782C42.7198 13.8705 48.3087 11.1262 56.165 11.1262H62.6099C62.9317 11.1262 63.2403 10.9983 63.4679 10.7705C63.6954 10.5427 63.8232 10.2338 63.8232 9.91163C63.8232 9.5895 63.6954 9.28057 63.4679 9.05279C63.2403 8.82501 62.9317 8.69705 62.6099 8.69705ZM20.6082 32.9852C16.8527 32.9792 13.2365 31.561 10.4763 29.0117C7.71614 26.4623 6.01342 22.968 5.70564 19.2211H23.8413C26.8 19.2303 29.6897 20.1172 32.1451 21.7697C34.6005 23.4223 36.5115 25.7664 37.6367 28.5058C33.4556 25.032 23.767 24.6035 17.3716 24.8903C17.0616 24.9071 16.7698 25.0422 16.5563 25.2678C16.3428 25.4934 16.2238 25.7924 16.2238 26.1031C16.2238 26.4139 16.3428 26.7129 16.5563 26.9385C16.7698 27.1641 17.0616 27.2992 17.3716 27.316H23.8342C31.6941 27.316 37.2759 30.0638 38.521 32.9817L20.6082 32.9852ZM10.1945 74.3554L2.41243 73.1232V53.7394L10.1945 54.9717V74.3554ZM56.4126 63.1976C61.906 61.9688 67.9159 58.0488 72.1323 57.6275C76.0764 61.0517 61.2587 64.745 56.2711 66.2322C56.5514 65.2451 56.5999 64.2065 56.4126 63.1976ZM56.165 35.4144H74.283C73.976 39.1609 72.2741 42.6553 69.5145 45.2047C66.7548 47.7541 63.1391 49.1724 59.3839 49.1785H41.4782C42.7198 46.2571 48.3087 43.5128 56.165 43.5128H62.6099C62.9317 43.5128 63.2403 43.3848 63.4679 43.157C63.6954 42.9293 63.8232 42.6203 63.8232 42.2982C63.8232 41.9761 63.6954 41.6671 63.4679 41.4394C63.2403 41.2116 62.9317 41.0836 62.6099 41.0836C56.2145 40.8003 46.5436 41.2253 42.3342 44.699C43.4613 41.9538 45.3777 39.6057 47.8401 37.9526C50.3026 36.2995 53.2001 35.4161 56.165 35.4144ZM75.6201 65.609C50.8308 85.2973 18.1816 76.5863 12.6352 74.8901V55.1523C29.1897 55.2266 31.9417 56.8484 34.3753 58.279C36.8762 59.745 39.0304 61.0127 50.9157 60.818C51.4169 60.8166 51.9118 60.9303 52.3624 61.1503C52.8129 61.3704 53.207 61.6909 53.5144 62.0872C53.8219 62.4836 54.0344 62.9452 54.1358 63.4366C54.2372 63.9281 54.2247 64.4362 54.0992 64.9221C54.0992 65.2762 53.9118 66.4695 51.7965 67.2521C49.5291 68.1409 44.5344 68.8987 33.5971 67.4787C33.2777 67.4374 32.9549 67.5248 32.6999 67.7217C32.4448 67.9186 32.2783 68.2088 32.237 68.5286C32.1958 68.8484 32.2831 69.1715 32.4798 69.4268C32.6765 69.6822 32.9664 69.8488 33.2858 69.8902C45.8291 72.7478 63.0698 67.5177 71.6053 63.4844C74.0814 62.4221 76.4301 61.4341 76.9572 61.8732C78.6798 63.1834 76.4053 64.9504 75.6024 65.609H75.6201ZM6.30698 57.9285C6.62876 57.9285 6.93737 58.0564 7.1649 58.2842C7.39244 58.512 7.52027 58.8209 7.52027 59.143C7.52027 59.4652 7.39244 59.7741 7.1649 60.0019C6.93737 60.2297 6.62876 60.3576 6.30698 60.3576C5.98519 60.3576 5.67659 60.2297 5.44905 60.0019C5.22152 59.7741 5.09369 59.4652 5.09369 59.143C5.09369 58.8209 5.22152 58.512 5.44905 58.2842C5.67659 58.0564 5.98519 57.9285 6.30698 57.9285Z"
                                fill="#161616" />
		</symbol>

		<symbol   viewBox="0 0 80 81" id="price">
			  <path
                                d="M79.9773 65.6472C79.9764 64.6834 79.5933 63.7594 78.912 63.0779C78.2308 62.3964 77.307 62.0131 76.3436 62.0121C75.5007 62.1503 60.4062 61.6578 60.2008 62.3983C60.8454 61.4275 60.5089 58.6782 60.5904 57.5657C60.5885 56.6012 60.2047 55.6768 59.523 54.9948C58.8413 54.3129 57.9172 53.9289 56.9531 53.927C56.6733 53.9943 40.7926 53.7286 41.1999 54.1538V48.2724H49.6751C52.5666 48.2687 55.3386 47.1177 57.383 45.0719C59.4273 43.0261 60.577 40.2527 60.5798 37.36C60.5798 37.0393 60.4526 36.7316 60.2263 36.5045C59.9999 36.2773 59.6927 36.1493 59.3721 36.1483H49.6751C48.0493 36.1488 46.4442 36.5134 44.9777 37.2154C43.5111 37.9174 42.2203 38.9389 41.1999 40.205V32.0562C45.259 31.7429 49.0391 29.869 51.7469 26.8277C54.4548 23.7864 55.8798 19.8142 55.7231 15.7444C55.5664 11.6747 53.8401 7.82388 50.9065 4.99998C47.9728 2.17609 44.0599 0.598633 39.9887 0.598633C35.9175 0.598633 32.0045 2.17609 29.0708 4.99998C26.1372 7.82388 24.4109 11.6747 24.2542 15.7444C24.0975 19.8142 25.5226 23.7864 28.2304 26.8277C30.9382 29.869 34.7183 31.7429 38.7774 32.0562V48.3114C37.756 47.0392 36.4618 46.0129 34.9906 45.3082C33.5193 44.6036 31.9086 44.2387 30.2775 44.2405H20.5982C20.2769 44.2405 19.9689 44.3682 19.7417 44.5954C19.5146 44.8226 19.3869 45.1308 19.3869 45.4522C19.3907 48.3443 20.5408 51.1168 22.585 53.1618C24.6292 55.2068 27.4007 56.3573 30.2917 56.3611H38.7916V62.2389C39.3158 61.8102 23.2367 62.0901 23.0384 62.0157C22.0749 62.0166 21.1512 62.3999 20.47 63.0814C19.7887 63.7629 19.4056 64.687 19.4046 65.6508C19.4932 66.7704 19.1461 69.502 19.7907 70.4834C19.6384 69.7287 4.43413 70.2318 3.64789 70.0972C3.16994 70.0958 2.6964 70.1887 2.25434 70.3705C1.81228 70.5523 1.41037 70.8194 1.07159 71.1567C0.732804 71.494 0.463787 71.8947 0.279917 72.3361C0.096047 72.7774 0.000928732 73.2506 0 73.7288L0 76.9635C0.00187201 77.927 0.385311 78.8506 1.06636 79.5319C1.74741 80.2132 2.67058 80.5968 3.63372 80.5986H18.1757C19.0728 80.5964 19.9368 80.2591 20.5982 79.6526C21.2617 80.2578 22.1263 80.5949 23.0242 80.5986H37.5662C38.4632 80.5958 39.3269 80.2585 39.9887 79.6526C40.6508 80.2579 41.5143 80.5951 42.4111 80.5986H56.9531C57.8501 80.5958 58.7139 80.2585 59.3756 79.6526C60.0392 80.2578 60.9037 80.5949 61.8016 80.5986H76.3436C77.3068 80.5968 78.2299 80.2132 78.911 79.5319C79.592 78.8506 79.9755 77.927 79.9773 76.9635C79.8923 75.3798 80.3811 72.4887 79.0317 71.2947C80.3705 70.1256 79.9065 67.2309 79.9773 65.6472ZM49.6751 38.5753H58.0829C57.7881 40.5937 56.7778 42.4389 55.2363 43.7741C53.6947 45.1094 51.7248 45.8458 49.6857 45.849H41.2778C41.5726 43.8306 42.583 41.9855 44.1245 40.6502C45.666 39.3149 47.636 38.5785 49.6751 38.5753ZM30.2917 53.9306C28.2521 53.9263 26.2821 53.1885 24.7412 51.8518C23.2003 50.5152 22.1911 48.6689 21.898 46.6497H30.2917C32.3307 46.653 34.3007 47.3894 35.8422 48.7246C37.3838 50.0599 38.3941 51.9051 38.6889 53.9235L30.2917 53.9306ZM19.3905 76.96C19.3895 77.2817 19.2611 77.5899 19.0334 77.817C18.8057 78.0441 18.4973 78.1717 18.1757 78.1717H3.63372C1.78145 78.1469 2.57123 75.3125 2.42602 73.7252C2.42602 73.4045 2.55315 73.0968 2.77954 72.8697C3.00592 72.6425 3.3131 72.5145 3.63372 72.5135H18.1757C20.0315 72.5419 19.2276 75.3763 19.3905 76.96ZM38.7774 76.96C38.7765 77.2811 38.6486 77.5887 38.4216 77.8158C38.1947 78.0428 37.8871 78.1707 37.5662 78.1717H23.0207C21.1648 78.1469 21.9582 75.316 21.8094 73.7252C21.8104 73.4042 21.9383 73.0965 22.1652 72.8695C22.3922 72.6424 22.6997 72.5145 23.0207 72.5135H37.5626C39.4185 72.5419 38.6039 75.3763 38.7774 76.96ZM38.7774 68.8784C38.7765 69.1995 38.6486 69.5072 38.4216 69.7342C38.1947 69.9612 37.8871 70.0892 37.5662 70.0901H23.0207C21.1648 70.0653 21.9582 67.2274 21.8094 65.6437C21.8113 65.3232 21.9396 65.0165 22.1665 64.7902C22.3933 64.5639 22.7003 64.4365 23.0207 64.4355H37.5626C39.4185 64.4603 38.6039 67.2947 38.7774 68.8784ZM26.6579 16.3501C26.6579 12.8133 28.0624 9.42125 30.5624 6.9203C33.0624 4.41935 36.4531 3.01433 39.9887 3.01433C43.5242 3.01433 46.9149 4.41935 49.4149 6.9203C51.9149 9.42125 53.3194 12.8133 53.3194 16.3501C53.3194 19.887 51.9149 23.279 49.4149 25.78C46.9149 28.2809 43.5242 29.6859 39.9887 29.6859C36.4531 29.6859 33.0624 28.2809 30.5624 25.78C28.0624 23.279 26.6579 19.887 26.6579 16.3501ZM58.1785 76.9635C58.1776 77.2852 58.0492 77.5934 57.8215 77.8205C57.5938 78.0477 57.2853 78.1752 56.9637 78.1752H42.4111C40.5589 78.1504 41.3664 75.316 41.1999 73.7288C41.2008 73.4077 41.3288 73.1 41.5557 72.873C41.7827 72.646 42.0902 72.518 42.4111 72.5171H56.9531C58.8089 72.5419 58.0014 75.3798 58.1679 76.9635H58.1785ZM58.1785 68.882C58.1776 69.2037 58.0492 69.5119 57.8215 69.739C57.5938 69.9661 57.2853 70.0937 56.9637 70.0937H42.4111C40.5589 70.0689 41.3664 67.2309 41.1999 65.6472C41.2008 65.3261 41.3288 65.0185 41.5557 64.7915C41.7827 64.5644 42.0902 64.4365 42.4111 64.4355H56.9531C58.8089 64.4603 58.0014 67.2983 58.1679 68.882H58.1785ZM58.1785 60.8004C58.1776 61.1221 58.0492 61.4303 57.8215 61.6574C57.5938 61.8846 57.2853 62.0121 56.9637 62.0121H42.4111C40.5589 61.9873 41.3664 59.1494 41.1999 57.5657C41.1999 57.2443 41.3275 56.9361 41.5547 56.7089C41.7818 56.4816 42.0899 56.354 42.4111 56.354H56.9531C58.8089 56.3788 58.0014 59.2132 58.1679 60.8004H58.1785ZM77.5619 76.9635C77.561 77.2846 77.4331 77.5923 77.2061 77.8193C76.9792 78.0463 76.6716 78.1743 76.3507 78.1752H61.8016C59.9458 78.1504 60.7391 75.3196 60.5904 73.7288C60.5904 73.4074 60.718 73.0992 60.9452 72.872C61.1723 72.6447 61.4804 72.5171 61.8016 72.5171H76.3436C78.1959 72.5419 77.3919 75.3834 77.5619 76.9635ZM77.5619 68.882C77.561 69.203 77.4331 69.5107 77.2061 69.7377C76.9792 69.9648 76.6716 70.0927 76.3507 70.0937H61.8016C59.9458 70.0689 60.7391 67.2309 60.5904 65.6472C60.5904 65.3259 60.718 65.0177 60.9452 64.7904C61.1723 64.5632 61.4804 64.4355 61.8016 64.4355H76.3436C78.1959 64.4603 77.3919 67.2983 77.5619 68.882ZM45.0426 19.8364C45.0118 20.9185 44.6144 21.958 43.9155 22.7846C43.2167 23.6111 42.2579 24.1757 41.1964 24.3856C41.2814 25.282 41.1291 26.4476 39.9816 26.4512C38.8341 26.4547 38.6818 25.282 38.7703 24.3856C38.0076 24.2237 37.2945 23.882 36.6903 23.3891C36.086 22.8961 35.608 22.2661 35.296 21.5512C35.1861 21.2581 35.194 20.9338 35.3179 20.6463C35.4418 20.3588 35.6721 20.1304 35.9605 20.009C36.249 19.8876 36.5732 19.8827 36.8653 19.9951C37.1574 20.1076 37.3946 20.3288 37.5272 20.6123C38.3914 22.9188 42.6839 22.3555 42.6201 19.8364C42.6201 18.3271 41.7312 17.5618 39.9816 17.5618C38.7853 17.6641 37.5957 17.3009 36.6603 16.5479C35.7249 15.7949 35.1158 14.71 34.9598 13.5191C34.8037 12.3282 35.1127 11.123 35.8225 10.1542C36.5323 9.18548 37.5881 8.52784 38.7703 8.31818C38.6818 7.41826 38.8341 6.24908 39.9816 6.24908C41.1291 6.24908 41.2849 7.41472 41.1964 8.31464C42.8786 8.55202 46.2503 11.2943 44.0297 12.7363C43.883 12.7985 43.7255 12.8311 43.5662 12.8322C43.4069 12.8332 43.2489 12.8027 43.1015 12.7425C42.954 12.6822 42.8199 12.5933 42.7069 12.481C42.5939 12.3687 42.5042 12.2351 42.443 12.0879C41.5824 9.77789 37.2864 10.3448 37.3501 12.8638C37.3501 14.3944 38.2108 15.1384 39.9745 15.1384C40.6256 15.0682 41.2842 15.1385 41.9058 15.3445C42.5274 15.5506 43.0976 15.8876 43.578 16.3329C44.0583 16.7781 44.4376 17.3213 44.6903 17.9257C44.9429 18.5301 45.0631 19.1816 45.0426 19.8364ZM32.2927 16.3501C32.2927 16.6715 32.1651 16.9797 31.9379 17.2069C31.7108 17.4342 31.4027 17.5618 31.0814 17.5618C30.7602 17.5618 30.4521 17.4342 30.225 17.2069C29.9978 16.9797 29.8702 16.6715 29.8702 16.3501C29.8702 16.0269 29.9986 15.7169 30.227 15.4883C30.4555 15.2598 30.7654 15.1313 31.0885 15.1313C31.4116 15.1313 31.7215 15.2598 31.95 15.4883C32.1785 15.7169 32.3068 16.0269 32.3068 16.3501H32.2927ZM48.8746 17.5618C48.5534 17.5618 48.2453 17.4342 48.0182 17.2069C47.791 16.9797 47.6634 16.6715 47.6634 16.3501C47.6634 16.0288 47.791 15.7206 48.0182 15.4933C48.2453 15.2661 48.5534 15.1384 48.8746 15.1384C49.1959 15.1384 49.504 15.2661 49.7311 15.4933C49.9583 15.7206 50.0859 16.0288 50.0859 16.3501C50.0859 16.6715 49.9583 16.9797 49.7311 17.2069C49.504 17.4342 49.1959 17.5618 48.8746 17.5618Z"
                                fill="#161616" />
		</symbol>

        <symbol viewBox="0 0 80 81" id="selection">
			  <path
                                d="M51.1727 24.0313H30.2726C29.9634 24.0145 29.6725 23.8796 29.4596 23.6543C29.2466 23.4289 29.128 23.1303 29.128 22.8199C29.128 22.5094 29.2466 22.2108 29.4596 21.9855C29.6725 21.7601 29.9634 21.6252 30.2726 21.6084H51.1727C51.3369 21.5996 51.5011 21.6243 51.6554 21.6812C51.8097 21.738 51.9508 21.8258 52.0702 21.9392C52.1895 22.0525 52.2845 22.1891 52.3495 22.3405C52.4144 22.4919 52.4479 22.655 52.4479 22.8199C52.4479 22.9847 52.4144 23.1478 52.3495 23.2992C52.2845 23.4507 52.1895 23.5872 52.0702 23.7006C51.9508 23.8139 51.8097 23.9017 51.6554 23.9586C51.5011 24.0155 51.3369 24.0402 51.1727 24.0313ZM17.027 24.0313H23.8279C24.1371 24.0145 24.428 23.8796 24.6409 23.6543C24.8539 23.4289 24.9725 23.1303 24.9725 22.8199C24.9725 22.5094 24.8539 22.2108 24.6409 21.9855C24.428 21.7601 24.1371 21.6252 23.8279 21.6084H17.027C16.7179 21.6252 16.4269 21.7601 16.214 21.9855C16.0011 22.2108 15.8824 22.5094 15.8824 22.8199C15.8824 23.1303 16.0011 23.4289 16.214 23.6543C16.4269 23.8796 16.7179 24.0145 17.027 24.0313ZM10.5824 21.6084H9.27014C8.96101 21.6252 8.67004 21.7601 8.45712 21.9855C8.2442 22.2108 8.12553 22.5094 8.12553 22.8199C8.12553 23.1303 8.2442 23.4289 8.45712 23.6543C8.67004 23.8796 8.96101 24.0145 9.27014 24.0313H10.5824C10.8915 24.0145 11.1825 23.8796 11.3954 23.6543C11.6083 23.4289 11.727 23.1303 11.727 22.8199C11.727 22.5094 11.6083 22.2108 11.3954 21.9855C11.1825 21.7601 10.8915 21.6252 10.5824 21.6084ZM33.8635 32.9269H17.027C16.7179 32.9436 16.4269 33.0786 16.214 33.3039C16.0011 33.5293 15.8824 33.8279 15.8824 34.1383C15.8824 34.4487 16.0011 34.7473 16.214 34.9727C16.4269 35.198 16.7179 35.333 17.027 35.3497H33.8635C34.1844 35.3497 34.4922 35.2219 34.7191 34.9944C34.946 34.7669 35.0734 34.4583 35.0734 34.1365C35.0734 33.8148 34.946 33.5062 34.7191 33.2787C34.4922 33.0511 34.1844 32.9233 33.8635 32.9233V32.9269ZM10.5824 32.9269H9.27014C8.96101 32.9436 8.67004 33.0786 8.45712 33.3039C8.2442 33.5293 8.12553 33.8279 8.12553 34.1383C8.12553 34.4487 8.2442 34.7473 8.45712 34.9727C8.67004 35.198 8.96101 35.333 9.27014 35.3497H10.5824C10.9032 35.3497 11.211 35.2219 11.4379 34.9944C11.6648 34.7669 11.7923 34.4583 11.7923 34.1365C11.7923 33.8148 11.6648 33.5062 11.4379 33.2787C11.211 33.0511 10.9032 32.9233 10.5824 32.9233V32.9269ZM17.0305 46.6611H33.8635C34.1727 46.6443 34.4636 46.5094 34.6765 46.284C34.8895 46.0587 35.0081 45.7601 35.0081 45.4496C35.0081 45.1392 34.8895 44.8406 34.6765 44.6153C34.4636 44.3899 34.1727 44.255 33.8635 44.2382H17.027C16.723 44.2615 16.439 44.3991 16.2317 44.6234C16.0245 44.8477 15.9094 45.1421 15.9094 45.4479C15.9094 45.7536 16.0245 46.0481 16.2317 46.2723C16.439 46.4966 16.723 46.6342 17.027 46.6575L17.0305 46.6611ZM10.5824 44.2347H9.27014C8.96101 44.2514 8.67004 44.3864 8.45712 44.6117C8.2442 44.8371 8.12553 45.1357 8.12553 45.4461C8.12553 45.7565 8.2442 46.0551 8.45712 46.2805C8.67004 46.5058 8.96101 46.6408 9.27014 46.6575H10.5824C10.8915 46.6408 11.1825 46.5058 11.3954 46.2805C11.6083 46.0551 11.727 45.7565 11.727 45.4461C11.727 45.1357 11.6083 44.8371 11.3954 44.6117C11.1825 44.3864 10.8915 44.2514 10.5824 44.2347ZM43.5217 55.5531H28.6641C28.3549 55.5698 28.064 55.7048 27.851 55.9301C27.6381 56.1555 27.5195 56.4541 27.5195 56.7645C27.5195 57.0749 27.6381 57.3736 27.851 57.5989C28.064 57.8243 28.3549 57.9592 28.6641 57.9759H43.5182C43.8391 57.9759 44.1468 57.8481 44.3737 57.6206C44.6006 57.3931 44.7281 57.0845 44.7281 56.7627C44.7281 56.441 44.6006 56.1324 44.3737 55.9049C44.1468 55.6774 43.8391 55.5496 43.5182 55.5496L43.5217 55.5531ZM17.0305 57.9759H22.2229C22.5321 57.9592 22.823 57.8243 23.036 57.5989C23.2489 57.3736 23.3675 57.0749 23.3675 56.7645C23.3675 56.4541 23.2489 56.1555 23.036 55.9301C22.823 55.7048 22.5321 55.5698 22.2229 55.5531H17.027C16.723 55.5764 16.439 55.714 16.2317 55.9383C16.0245 56.1626 15.9094 56.457 15.9094 56.7627C15.9094 57.0685 16.0245 57.3629 16.2317 57.5872C16.439 57.8115 16.723 57.9491 17.027 57.9724L17.0305 57.9759ZM10.5824 55.5496H9.27014C8.96101 55.5663 8.67004 55.7013 8.45712 55.9266C8.2442 56.1519 8.12553 56.4506 8.12553 56.761C8.12553 57.0714 8.2442 57.37 8.45712 57.5954C8.67004 57.8207 8.96101 57.9557 9.27014 57.9724H10.5824C10.8915 57.9557 11.1825 57.8207 11.3954 57.5954C11.6083 57.37 11.727 57.0714 11.727 56.761C11.727 56.4506 11.6083 56.1519 11.3954 55.9266C11.1825 55.7013 10.8915 55.5663 10.5824 55.5496ZM33.9059 68.0776C33.9059 68.2365 33.9371 68.3938 33.9977 68.5405C34.0583 68.6873 34.1472 68.8207 34.2592 68.933C34.3712 69.0453 34.5042 69.1344 34.6506 69.1952C34.7969 69.256 34.9538 69.2873 35.1122 69.2873H51.1763C51.3404 69.2962 51.5046 69.2715 51.6589 69.2146C51.8132 69.1577 51.9544 69.0699 52.0737 68.9566C52.193 68.8432 52.2881 68.7066 52.353 68.5552C52.418 68.4038 52.4515 68.2407 52.4515 68.0759C52.4515 67.911 52.418 67.7479 52.353 67.5965C52.2881 67.4451 52.193 67.3085 52.0737 67.1952C51.9544 67.0818 51.8132 66.994 51.6589 66.9371C51.5046 66.8803 51.3404 66.8555 51.1763 66.8644H35.1087C34.95 66.8644 34.7928 66.8958 34.6462 66.9569C34.4996 67.0179 34.3665 67.1073 34.2544 67.22C34.1424 67.3327 34.0536 67.4665 33.9931 67.6136C33.9327 67.7608 33.9019 67.9185 33.9023 68.0776H33.9059ZM17.0305 69.2873H28.6711C28.9803 69.2705 29.2712 69.1356 29.4841 68.9102C29.6971 68.6849 29.8157 68.3863 29.8157 68.0759C29.8157 67.7654 29.6971 67.4668 29.4841 67.2415C29.2712 67.0161 28.9803 66.8812 28.6711 66.8644H17.0305C16.7214 66.8807 16.4302 67.0152 16.2169 67.2403C16.0037 67.4653 15.8846 67.7638 15.8841 68.0742C15.8837 68.3846 16.0019 68.6834 16.2145 68.9091C16.4271 69.1347 16.7214 69.2701 17.0305 69.2873ZM10.5824 66.8644H9.27014C8.96101 66.8812 8.67004 67.0161 8.45712 67.2415C8.2442 67.4668 8.12553 67.7654 8.12553 68.0759C8.12553 68.3863 8.2442 68.6849 8.45712 68.9102C8.67004 69.1356 8.96101 69.2705 9.27014 69.2873H10.5824C10.8915 69.2705 11.1825 69.1356 11.3954 68.9102C11.6083 68.6849 11.727 68.3863 11.727 68.0759C11.727 67.7654 11.6083 67.4668 11.3954 67.2415C11.1825 67.0161 10.8915 66.8812 10.5824 66.8644ZM60.4429 38.5684V57.6505C62.3158 54.6174 65.0258 52.194 68.2445 50.6741C71.4633 49.1543 75.0526 48.6031 78.5775 49.0874C78.8978 49.0874 79.205 49.2148 79.4318 49.4415C79.6586 49.6683 79.7865 49.976 79.7874 50.2971C80.2059 52.9942 80.0048 55.7516 79.1992 58.359C78.3937 60.9663 77.0051 63.3548 75.1392 65.3424C73.2734 67.33 70.9796 68.8641 68.4327 69.8279C65.8858 70.7917 63.1531 71.1596 60.4429 70.9037V76.1526C60.4419 77.3309 59.975 78.4607 59.1444 79.2941C58.3138 80.1276 57.1875 80.5968 56.0124 80.5986H4.43401C3.25861 80.5968 2.13188 80.1277 1.30075 79.2944C0.469618 78.461 0.00186572 77.3312 0 76.1526V5.04111C0.00186779 3.86286 0.469733 2.73345 1.30097 1.90062C2.1322 1.0678 3.25893 0.599568 4.43401 0.598633L56.0089 0.598633C57.1833 0.600504 58.3092 1.06915 59.1396 1.90187C59.9701 2.73459 60.4375 3.86347 60.4393 5.04111V14.7467C60.4226 15.0566 60.2881 15.3484 60.0633 15.5619C59.8386 15.7754 59.5408 15.8944 59.2312 15.8944C58.9216 15.8944 58.6238 15.7754 58.3991 15.5619C58.1743 15.3484 58.0397 15.0566 58.023 14.7467V5.04111C58.0221 4.50609 57.8095 3.99329 57.4319 3.6153C57.0542 3.23731 56.5424 3.02502 56.0089 3.02502H45.9345V6.66106C45.9326 8.2674 45.2954 9.80742 44.1626 10.9433C43.0298 12.0791 41.4939 12.7181 39.8919 12.72H20.5509C18.9486 12.7181 17.4124 12.0792 16.279 10.9435C15.1457 9.80774 14.5077 8.26773 14.5049 6.66106V3.02502H4.43401C3.90042 3.02502 3.38864 3.23731 3.01102 3.6153C2.63339 3.99329 2.42077 4.50609 2.41983 5.04111V76.1526C2.41983 76.6883 2.63204 77.202 3.00977 77.5807C3.3875 77.9595 3.89981 78.1722 4.43401 78.1722H56.0089C56.5431 78.1722 57.0554 77.9595 57.4331 77.5807C57.8108 77.202 58.023 76.6883 58.023 76.1526V54.7431C55.3131 54.9985 52.5808 54.6301 50.0343 53.6661C47.4879 52.702 45.1946 51.1678 43.3291 49.1803C41.4637 47.1928 40.0754 44.8045 39.2701 42.1974C38.4647 39.5904 38.2636 36.8333 38.682 34.1365C38.6816 33.9774 38.7124 33.8197 38.7728 33.6725C38.8333 33.5253 38.922 33.3916 39.0341 33.2789C39.1462 33.1662 39.2793 33.0768 39.4259 33.0157C39.5725 32.9547 39.7297 32.9233 39.8884 32.9233C43.4137 32.4389 47.0034 32.9904 50.2223 34.5109C53.4412 36.0315 56.151 38.4558 58.023 41.49V34.133C58.0652 31.5795 58.6525 29.0648 59.7452 26.758C60.838 24.4512 62.4109 22.4059 64.358 20.7597C66.3052 19.1136 68.5815 17.9048 71.0336 17.2147C73.4858 16.5247 76.0569 16.3694 78.574 16.7592C78.8946 16.7601 79.2018 16.8883 79.4285 17.1156C79.6552 17.3429 79.783 17.6509 79.7839 17.9724C80.1727 20.4963 80.0178 23.0744 79.3296 25.5332C78.6414 27.992 77.4359 30.2744 75.7942 32.2268C74.1525 34.1793 72.1127 35.7565 69.8121 36.8522C67.5116 37.9479 65.0036 38.5367 62.457 38.579L60.4429 38.5684ZM60.4429 34.4301L68.0516 26.8008C68.1618 26.6792 68.2955 26.5813 68.4445 26.5131C68.5936 26.4449 68.7549 26.4077 68.9187 26.4039C69.0825 26.4001 69.2454 26.4297 69.3974 26.4908C69.5495 26.552 69.6876 26.6435 69.8033 26.7598C69.9191 26.8761 70.01 27.0148 70.0707 27.1674C70.1314 27.32 70.1606 27.4833 70.1564 27.6476C70.1523 27.8118 70.1149 27.9735 70.0466 28.1228C69.9782 28.2721 69.8803 28.406 69.7589 28.5162L62.1537 36.1455C64.3059 36.1633 66.4373 35.7222 68.4067 34.8515C70.3761 33.9809 72.1384 32.7004 73.577 31.0951C75.0155 29.4899 76.0974 27.5963 76.7509 25.5401C77.4044 23.4838 77.6146 21.3118 77.3676 19.1679C75.2545 18.9197 73.113 19.1201 71.0822 19.7559C69.0514 20.3917 67.1767 21.4488 65.5799 22.8584C63.9831 24.2681 62.6999 25.9988 61.8137 27.9382C60.9274 29.8775 60.458 31.9822 60.4358 34.1153L60.4429 34.4301ZM41.1019 35.3356C40.8543 37.4796 41.0641 39.6518 41.7174 41.7083C42.3707 43.7648 43.4525 45.6586 44.8911 47.264C46.3298 48.8694 48.0924 50.1498 50.062 51.0203C52.0317 51.8908 54.1633 52.3315 56.3158 52.3132L48.7106 44.6874C48.4903 44.4586 48.3684 44.1522 48.3712 43.8341C48.374 43.5161 48.5012 43.2118 48.7255 42.9869C48.9498 42.762 49.2532 42.6345 49.5704 42.6317C49.8876 42.6288 50.1932 42.7511 50.4214 42.972L58.0266 50.5977C58.0437 48.4403 57.6035 46.3038 56.7352 44.3298C55.8669 42.3558 54.5902 40.5893 52.9897 39.1474C51.3891 37.7054 49.5014 36.6208 47.4513 35.9655C45.4013 35.3102 43.2358 35.0991 41.0983 35.3462L41.1019 35.3356ZM16.9318 6.66106C16.9327 7.62389 17.3141 8.54712 17.9924 9.2286C18.6707 9.91009 19.5907 10.2943 20.5509 10.2971H39.8919C40.8534 10.2962 41.7752 9.91278 42.455 9.2311C43.1349 8.54941 43.5172 7.62511 43.5182 6.66106V3.02502H16.9318V6.66106ZM60.4393 66.7654L68.0481 59.1396C68.2745 58.9126 68.5815 58.7851 68.9017 58.7851C69.2219 58.7851 69.5289 58.9126 69.7553 59.1396C69.9817 59.3666 70.1089 59.6745 70.1089 59.9956C70.1089 60.3166 69.9817 60.6245 69.7553 60.8515L62.1502 68.4809C64.3034 68.502 66.4365 68.0633 68.4075 67.1937C70.3785 66.3242 72.1423 65.0438 73.5815 63.4377C75.0207 61.8316 76.1024 59.9367 76.7546 57.8789C77.4068 55.8212 77.6145 53.6477 77.3641 51.5032H75.3499C73.3665 51.5066 71.4036 51.906 69.5758 52.6781C67.748 53.4502 66.0918 54.5795 64.7039 56.0002C63.3159 57.4209 62.224 59.1045 61.4918 60.9527C60.7597 62.801 60.4019 64.777 60.4393 66.7654Z"
                                fill="#161616" />
		</symbol>
	<symbol viewBox="0 0 81 81" id="flow">
			   <path
                                d="M78.8405 39.3856H72.4227C71.0005 33.4374 67.9581 27.9996 63.6331 23.6756L40.8858 0.938835C40.6534 0.720301 40.3463 0.598633 40.0273 0.598633C39.7083 0.598633 39.4013 0.720301 39.1689 0.938835L21.6854 18.4117C21.3314 18.4117 20.9774 18.3586 20.6234 18.3586H1.21418C1.0549 18.3582 0.897094 18.3892 0.749803 18.4498C0.602512 18.5104 0.468634 18.5995 0.35584 18.712C0.243046 18.8244 0.153554 18.9581 0.0924922 19.1052C0.0314304 19.2523 -6.80893e-07 19.41 0 19.5693C0.00235549 22.8344 0.781391 26.0521 2.27277 28.9567C3.76416 31.8613 5.9251 34.3694 8.57716 36.274C-4.60186 79.436 56.9923 99.7018 71.9306 56.9612C74.4547 55.0419 76.5013 52.5654 77.9105 49.7249C79.3197 46.8843 80.0535 43.7565 80.0547 40.5856C80.0509 40.2661 79.9214 39.9609 79.6941 39.7362C79.4668 39.5116 79.1601 39.3856 78.8405 39.3856ZM40.0256 3.49818L61.9198 25.3889C65.7819 29.2597 68.5401 34.0918 69.9093 39.3856H59.4348C55.6958 39.3883 52.0278 40.4072 48.8229 42.3332C45.6181 44.2592 42.997 47.02 41.2397 50.3203V38.9927C41.2366 34.24 39.5948 29.6337 36.5912 25.9504C33.5876 22.2671 29.4058 19.7322 24.7509 18.7728L40.0256 3.49818ZM2.47792 20.7835H20.6199C24.2316 20.7902 27.7597 21.8707 30.7556 23.8878C33.7516 25.9048 36.0801 28.7673 37.445 32.1111C32.4006 27.488 21.2889 27.9518 14.1596 28.0615C13.8493 28.0783 13.5574 28.2133 13.3437 28.4388C13.13 28.6644 13.0109 28.9632 13.0109 29.2739C13.0109 29.5846 13.13 29.8834 13.3437 30.109C13.5574 30.3345 13.8493 30.4695 14.1596 30.4863H23.8553C31.2395 30.4863 37.5618 33.7147 38.6344 37.7643H20.6199C16.0081 37.7561 11.571 35.999 8.20403 32.8475C4.83702 29.696 2.79069 25.3847 2.47792 20.7835ZM61.9481 69.1703C38.4893 91.9813 0.796475 68.3738 10.7011 37.6404C13.7366 39.3139 17.1466 40.1908 20.6128 40.1892H38.8078V72.9438C38.7989 73.1085 38.8237 73.2733 38.8806 73.4282C38.9375 73.583 39.0254 73.7246 39.1388 73.8444C39.2523 73.9641 39.389 74.0595 39.5405 74.1247C39.692 74.1899 39.8553 74.2235 40.0203 74.2235C40.1852 74.2235 40.3485 74.1899 40.5 74.1247C40.6515 74.0595 40.7882 73.9641 40.9017 73.8444C41.0151 73.7246 41.103 73.583 41.1599 73.4282C41.2168 73.2733 41.2416 73.1085 41.2327 72.9438V61.2161H59.4277C62.6247 61.2151 65.7769 60.4646 68.6314 59.0249C67.0961 62.822 64.8137 66.272 61.9198 69.1703H61.9481ZM59.4702 58.7913H41.4167C42.4787 54.7417 48.8116 51.5133 56.1958 51.5133H65.8986C66.2089 51.4965 66.5009 51.3615 66.7145 51.1359C66.9282 50.9104 67.0473 50.6115 67.0473 50.3009C67.0473 49.9902 66.9282 49.6913 66.7145 49.4658C66.5009 49.2403 66.2089 49.1052 65.8986 49.0885C58.7976 48.9681 47.5939 48.5256 42.5991 53.1346C43.9638 49.7899 46.2927 46.9268 49.2895 44.9096C52.2862 42.8925 55.8153 41.8124 59.4277 41.8069H77.5803C77.2675 46.409 75.2208 50.7212 71.8531 53.8734C68.4855 57.0256 64.0475 58.7831 59.4348 58.7913H59.4702ZM32.7298 70.8269C27.3891 69.1749 22.7701 65.7535 19.6335 61.126C16.4968 56.4985 15.0294 50.9408 15.4729 45.368C15.5132 45.0597 15.6703 44.7785 15.9118 44.5826C16.1532 44.3866 16.4607 44.2908 16.7707 44.3149C17.0808 44.3389 17.3698 44.481 17.5782 44.7119C17.7865 44.9428 17.8984 45.2448 17.8906 45.5556C17.4905 50.5827 18.8153 55.5961 21.6467 59.7692C24.4781 63.9423 28.647 67.026 33.4661 68.5118C33.6186 68.5625 33.7596 68.6427 33.8811 68.7479C34.0026 68.8531 34.1022 68.9811 34.1741 69.1248C34.2461 69.2684 34.2891 69.4248 34.3007 69.5851C34.3122 69.7453 34.292 69.9063 34.2414 70.0588C34.1907 70.2113 34.1105 70.3523 34.0053 70.4737C33.9002 70.5952 33.7721 70.6948 33.6285 70.7668C33.4848 70.8388 33.3284 70.8818 33.1681 70.8933C33.0079 70.9048 32.8469 70.8847 32.6944 70.834L32.7298 70.8269Z"
                                fill="#161616" />
		</symbol>
	<symbol  viewBox="0 0 80 81" id="sis">
			   <path
                                d="M21.8188 16.3565V11.5098C21.8142 10.761 21.5149 10.0442 20.9857 9.51436C20.4566 8.98454 19.7401 8.68436 18.9913 8.67876H10.9112C10.1587 8.68346 9.43866 8.98568 8.90824 9.51944C8.37781 10.0532 8.08011 10.7751 8.08012 11.5276V16.3565C8.08012 17.112 8.38027 17.8367 8.91454 18.3709C9.44881 18.9052 10.1734 19.2054 10.929 19.2054H18.9913C19.7432 19.1997 20.4623 18.8971 20.992 18.3634C21.5216 17.8298 21.8188 17.1084 21.8188 16.3565ZM10.5052 16.3565V11.5098C10.5052 11.4022 10.548 11.2989 10.6241 11.2228C10.7003 11.1466 10.8035 11.1039 10.9112 11.1039H18.9913C19.0984 11.1048 19.2007 11.148 19.2761 11.224C19.3514 11.3001 19.3937 11.4028 19.3937 11.5098V16.3565C19.3937 16.4635 19.3514 16.5663 19.2761 16.6423C19.2007 16.7183 19.0984 16.7615 18.9913 16.7624H10.9112C10.8038 16.7615 10.7011 16.7184 10.6252 16.6425C10.5492 16.5666 10.5062 16.4639 10.5052 16.3565ZM16.2528 25.1987C16.4176 25.1897 16.5825 25.2145 16.7373 25.2714C16.8922 25.3283 17.0339 25.4162 17.1537 25.5296C17.2735 25.6431 17.3689 25.7798 17.4341 25.9314C17.4993 26.083 17.5329 26.2462 17.5329 26.4112C17.5329 26.5762 17.4993 26.7395 17.4341 26.8911C17.3689 27.0427 17.2735 27.1794 17.1537 27.2928C17.0339 27.4063 16.8922 27.4942 16.7373 27.5511C16.5825 27.608 16.4176 27.6327 16.2528 27.6238H9.29446C8.98423 27.607 8.69225 27.4719 8.4786 27.2463C8.26494 27.0208 8.14586 26.7219 8.14586 26.4112C8.14586 26.1005 8.26494 25.8017 8.4786 25.5761C8.69225 25.3506 8.98423 25.2155 9.29446 25.1987H16.2528ZM22.0574 25.1987H29.0158C29.326 25.2155 29.618 25.3506 29.8317 25.5761C30.0453 25.8017 30.1644 26.1005 30.1644 26.4112C30.1644 26.7219 30.0453 27.0208 29.8317 27.2463C29.618 27.4719 29.326 27.607 29.0158 27.6238H22.0574C21.7472 27.607 21.4552 27.4719 21.2416 27.2463C21.0279 27.0208 20.9088 26.7219 20.9088 26.4112C20.9088 26.1005 21.0279 25.8017 21.2416 25.5761C21.4552 25.3506 21.7472 25.2155 22.0574 25.1987ZM34.8204 27.6238C34.5102 27.607 34.2182 27.4719 34.0045 27.2463C33.7909 27.0208 33.6718 26.7219 33.6718 26.4112C33.6718 26.1005 33.7909 25.8017 34.0045 25.5761C34.2182 25.3506 34.5102 25.2155 34.8204 25.1987H41.7823C42.0926 25.2155 42.3845 25.3506 42.5982 25.5761C42.8118 25.8017 42.9309 26.1005 42.9309 26.4112C42.9309 26.7219 42.8118 27.0208 42.5982 27.2463C42.3845 27.4719 42.0926 27.607 41.7823 27.6238H34.8204ZM54.5453 27.6238H47.5834C47.2731 27.607 46.9811 27.4719 46.7675 27.2463C46.5538 27.0208 46.4348 26.7219 46.4348 26.4112C46.4348 26.1005 46.5538 25.8017 46.7675 25.5761C46.9811 25.3506 47.2731 25.2155 47.5834 25.1987H54.5453C54.7101 25.1897 54.8749 25.2145 55.0298 25.2714C55.1847 25.3283 55.3263 25.4162 55.4461 25.5296C55.5659 25.6431 55.6613 25.7798 55.7265 25.9314C55.7917 26.083 55.8254 26.2462 55.8254 26.4112C55.8254 26.5762 55.7917 26.7395 55.7265 26.8911C55.6613 27.0427 55.5659 27.1794 55.4461 27.2928C55.3263 27.4063 55.1847 27.4942 55.0298 27.5511C54.8749 27.608 54.7101 27.6327 54.5453 27.6238ZM22.4064 34.5928H9.29446C9.12969 34.6018 8.96484 34.577 8.80996 34.5201C8.65508 34.4632 8.51342 34.3754 8.39362 34.2619C8.27383 34.1484 8.17842 34.0117 8.11322 33.8601C8.04802 33.7086 8.01439 33.5453 8.01439 33.3803C8.01439 33.2153 8.04802 33.052 8.11322 32.9004C8.17842 32.7489 8.27383 32.6122 8.39362 32.4987C8.51342 32.3852 8.65508 32.2974 8.80996 32.2404C8.96484 32.1835 9.12969 32.1588 9.29446 32.1677H22.4064C22.7166 32.1846 23.0086 32.3196 23.2223 32.5452C23.4359 32.7707 23.555 33.0696 23.555 33.3803C23.555 33.691 23.4359 33.9898 23.2223 34.2154C23.0086 34.4409 22.7166 34.576 22.4064 34.5928ZM29.4716 32.1677H47.8682C48.1785 32.1846 48.4704 32.3196 48.6841 32.5452C48.8978 32.7707 49.0168 33.0696 49.0168 33.3803C49.0168 33.691 48.8978 33.9898 48.6841 34.2154C48.4704 34.4409 48.1785 34.576 47.8682 34.5928H29.4716C29.1614 34.576 28.8694 34.4409 28.6558 34.2154C28.4421 33.9898 28.323 33.691 28.323 33.3803C28.323 33.0696 28.4421 32.7707 28.6558 32.5452C28.8694 32.3196 29.1614 32.1846 29.4716 32.1677ZM50.507 8.66451C49.2684 8.66748 48.0715 9.11192 47.1311 9.91802C46.3686 9.27463 45.4381 8.86255 44.4492 8.73029C43.4603 8.59804 42.4542 8.75114 41.5494 9.17154C40.6446 9.59195 39.8788 10.2622 39.3422 11.1032C38.8056 11.9443 38.5205 12.9212 38.5205 13.9189C38.5205 14.9166 38.8056 15.8935 39.3422 16.7346C39.8788 17.5757 40.6446 18.2459 41.5494 18.6663C42.4542 19.0867 43.4603 19.2398 44.4492 19.1075C45.4381 18.9753 46.3686 18.5632 47.1311 17.9198C47.7766 18.463 48.5436 18.8426 49.367 19.0262C50.1905 19.2098 51.046 19.1921 51.8612 18.9746C52.6763 18.757 53.427 18.3461 54.0494 17.7766C54.6719 17.2072 55.1478 16.4959 55.4368 15.7033C55.7258 14.9107 55.8194 14.0601 55.7095 13.2236C55.5997 12.3871 55.2897 11.5894 54.8059 10.8983C54.3221 10.2071 53.6787 9.64289 52.9303 9.2534C52.182 8.86391 51.3507 8.66068 50.507 8.66095V8.66451ZM43.7694 16.7482C43.0764 16.6665 42.4375 16.3333 41.9738 15.8118C41.5101 15.2903 41.254 14.6167 41.254 13.9189C41.254 13.2211 41.5101 12.5475 41.9738 12.026C42.4375 11.5045 43.0764 11.1713 43.7694 11.0896C44.5217 11.0896 45.2431 11.3885 45.7751 11.9204C46.307 12.4523 46.6058 13.1738 46.6058 13.926C46.6058 14.6783 46.307 15.3997 45.7751 15.9317C45.2431 16.4636 44.5217 16.7624 43.7694 16.7624V16.7482ZM50.507 16.7482C49.7954 16.7485 49.1099 16.4802 48.5876 15.9968C48.8713 15.3408 49.0176 14.6336 49.0176 13.9189C49.0176 13.2042 48.8713 12.497 48.5876 11.841C48.927 11.5413 49.3338 11.3279 49.7734 11.219C50.2129 11.1101 50.6723 11.109 51.1124 11.2156C51.5525 11.3223 51.9603 11.5336 52.3013 11.8317C52.6422 12.1297 52.9062 12.5056 53.0707 12.9275C53.2353 13.3494 53.2955 13.8048 53.2464 14.255C53.1973 14.7052 53.0402 15.1368 52.7885 15.5133C52.5368 15.8897 52.198 16.1999 51.8008 16.4174C51.4036 16.6348 50.9598 16.7532 50.507 16.7624V16.7482ZM6.05386 49.0829C3.00913 49.439 0.0534164 48.0146 0 44.6387V5.04288C0.000943096 3.86448 0.469478 2.73462 1.30273 1.90136C2.13598 1.06811 3.26585 0.599576 4.44425 0.598633L59.3955 0.598633C60.5739 0.599576 61.7038 1.06811 62.537 1.90136C63.3703 2.73462 63.8388 3.86448 63.8397 5.04288V35.7466C63.8229 36.0569 63.6879 36.3488 63.4623 36.5625C63.2367 36.7762 62.9379 36.8952 62.6272 36.8952C62.3165 36.8952 62.0177 36.7762 61.7921 36.5625C61.5665 36.3488 61.4315 36.0569 61.4146 35.7466V5.04288C61.4146 4.50737 61.2019 3.99379 60.8232 3.61513C60.4446 3.23647 59.931 3.02374 59.3955 3.02374H4.44425C3.90874 3.02374 3.39516 3.23647 3.0165 3.61513C2.63784 3.99379 2.42511 4.50737 2.42511 5.04288V44.6387C2.49277 46.7362 4.49054 46.7433 6.06098 46.6578C6.37118 46.6755 6.66278 46.8115 6.8758 47.0377C7.08881 47.2638 7.20702 47.5631 7.20611 47.8738C7.2052 48.1845 7.08523 48.483 6.87089 48.7079C6.65655 48.9328 6.36415 49.0671 6.05386 49.0829ZM78.7821 39.3861H10.9112C10.5891 39.3861 10.2803 39.514 10.0525 39.7417C9.8248 39.9695 9.69686 40.2784 9.69686 40.6004V79.3843C9.69686 79.5438 9.72827 79.7017 9.7893 79.849C9.85032 79.9963 9.93977 80.1302 10.0525 80.243C10.1653 80.3557 10.2992 80.4452 10.4465 80.5062C10.5938 80.5672 10.7517 80.5986 10.9112 80.5986H78.7892C79.1107 80.5977 79.4186 80.4693 79.6456 80.2417C79.8726 80.0141 80 79.7057 80 79.3843V40.6004C80.0005 40.4411 79.9695 40.2833 79.9089 40.136C79.8482 39.9887 79.7591 39.8548 79.6466 39.742C79.5342 39.6292 79.4005 39.5397 79.2534 39.4786C79.1063 39.4175 78.9485 39.3861 78.7892 39.3861H78.7821ZM77.5678 78.1735H12.1077V41.8112H77.5607L77.5678 78.1735ZM18.183 68.4767C19.147 68.4776 20.0712 68.861 20.7529 69.5426C21.4345 70.2243 21.8179 71.1485 21.8188 72.1125C21.8188 72.4337 21.9464 72.7416 22.1735 72.9687C22.4005 73.1958 22.7085 73.3233 23.0296 73.3233H66.6673C66.9884 73.3233 67.2963 73.1958 67.5234 72.9687C67.7505 72.7416 67.878 72.4337 67.878 72.1125C67.8799 71.1488 68.2636 70.2251 68.945 69.5437C69.6265 68.8622 70.5502 68.4785 71.5139 68.4767C71.8354 68.4767 72.1437 68.3492 72.3713 68.1223C72.5989 67.8953 72.7273 67.5873 72.7282 67.2659V52.7188C72.7273 52.3974 72.5989 52.0894 72.3713 51.8625C72.1437 51.6355 71.8354 51.508 71.5139 51.508C70.5502 51.5062 69.6265 51.1225 68.945 50.441C68.2636 49.7596 67.8799 48.8359 67.878 47.8722C67.8785 47.7129 67.8475 47.555 67.7869 47.4077C67.7262 47.2604 67.6371 47.1265 67.5247 47.0137C67.4122 46.9009 67.2786 46.8114 67.1314 46.7503C66.9843 46.6893 66.8266 46.6578 66.6673 46.6578H23.0296C22.8703 46.6578 22.7126 46.6893 22.5654 46.7503C22.4183 46.8114 22.2847 46.9009 22.1722 47.0137C22.0597 47.1265 21.9706 47.2604 21.91 47.4077C21.8493 47.555 21.8184 47.7129 21.8188 47.8722C21.8202 48.3507 21.7273 48.8248 21.5452 49.2674C21.3632 49.7099 21.0956 50.1123 20.7579 50.4513C20.4202 50.7903 20.0189 51.0594 19.5771 51.2432C19.1352 51.427 18.6615 51.5218 18.183 51.5223C17.8615 51.5223 17.5532 51.6497 17.3255 51.8767C17.0979 52.1037 16.9696 52.4116 16.9686 52.7331V67.2801C16.9733 67.5991 17.1033 67.9034 17.3305 68.1273C17.5577 68.3512 17.864 68.4767 18.183 68.4767ZM19.3937 53.8085C20.5576 53.5692 21.6258 52.9941 22.4663 52.1542C23.3068 51.3144 23.8827 50.2466 24.1229 49.0829H65.5776C65.8145 50.2475 66.3889 51.3166 67.2292 52.1569C68.0695 52.9972 69.1386 53.5716 70.3031 53.8085V66.1762C69.1386 66.4131 68.0695 66.9875 67.2292 67.8278C66.3889 68.6682 65.8145 69.7372 65.5776 70.9018H24.1229C23.8827 69.7381 23.3068 68.6703 22.4663 67.8305C21.6258 66.9906 20.5576 66.4155 19.3937 66.1762V53.8085ZM30.8569 64.8479C32.12 64.8137 33.3199 64.2878 34.2012 63.3823C35.0826 62.4768 35.5757 61.2631 35.5757 59.9995C35.5757 58.7359 35.0826 57.5222 34.2012 56.6166C33.3199 55.7111 32.12 55.1853 30.8569 55.151C29.6113 55.2096 28.4361 55.7455 27.5753 56.6477C26.7145 57.5499 26.2342 58.749 26.2342 59.9959C26.2342 61.2429 26.7145 62.4419 27.5753 63.3441C28.4361 64.2463 29.6113 64.7823 30.8569 64.8408V64.8479ZM30.8569 57.5762C31.4835 57.6002 32.0765 57.866 32.5113 58.3178C32.9462 58.7697 33.1891 59.3724 33.1891 59.9995C33.1891 60.6266 32.9462 61.2293 32.5113 61.6811C32.0765 62.1329 31.4835 62.3988 30.8569 62.4228C30.2303 62.3988 29.6373 62.1329 29.2025 61.6811C28.7676 61.2293 28.5247 60.6266 28.5247 59.9995C28.5247 59.3724 28.7676 58.7697 29.2025 58.3178C29.6373 57.866 30.2303 57.6002 30.8569 57.5762ZM59.1391 64.8479C60.4022 64.8137 61.6021 64.2878 62.4835 63.3823C63.3648 62.4768 63.8579 61.2631 63.8579 59.9995C63.8579 58.7359 63.3648 57.5222 62.4835 56.6166C61.6021 55.7111 60.4022 55.1853 59.1391 55.151C57.8935 55.2096 56.7183 55.7455 55.8575 56.6477C54.9967 57.5499 54.5165 58.749 54.5165 59.9959C54.5165 61.2429 54.9967 62.4419 55.8575 63.3441C56.7183 64.2463 57.8935 64.7823 59.1391 64.8408V64.8479ZM59.1391 57.5762C59.7657 57.6002 60.3587 57.866 60.7935 58.3178C61.2284 58.7697 61.4713 59.3724 61.4713 59.9995C61.4713 60.6266 61.2284 61.2293 60.7935 61.6811C60.3587 62.1329 59.7657 62.3988 59.1391 62.4228C58.5125 62.3988 57.9195 62.1329 57.4847 61.6811C57.0498 61.2293 56.8069 60.6266 56.8069 59.9995C56.8069 59.3724 57.0498 58.7697 57.4847 58.3178C57.9195 57.866 58.5125 57.6002 59.1391 57.5762ZM43.6305 51.9674C43.5415 51.07 43.6946 49.8984 44.8413 49.8984C45.988 49.8984 46.1411 51.0665 46.0521 51.9639C46.8196 52.1253 47.5372 52.4681 48.145 52.9638C48.7528 53.4594 49.233 54.0934 49.5455 54.8127C49.6527 55.1059 49.6429 55.429 49.5182 55.7151C49.3934 56.0012 49.1633 56.2283 48.8756 56.3492C48.5879 56.4702 48.2647 56.4757 47.973 56.3647C47.6813 56.2536 47.4436 56.0345 47.3091 55.7529C46.4474 53.4417 42.1562 54.0044 42.2203 56.5292C42.2203 58.0569 43.075 58.8012 44.8413 58.8012C46.0691 58.6406 47.3104 58.9744 48.2921 59.729C49.2738 60.4837 49.9156 61.5974 50.0761 62.8252C50.2367 64.053 49.9029 65.2943 49.1483 66.276C48.3936 67.2577 47.2799 67.8995 46.0521 68.06C46.1411 68.9574 45.9844 70.1219 44.8413 70.1255C43.6982 70.129 43.5415 68.9539 43.6305 68.0565C42.8662 67.8928 42.152 67.5488 41.5474 67.0533C40.9429 66.5577 40.4655 65.9249 40.1549 65.2076C40.0298 64.9115 40.0274 64.5778 40.1483 64.28C40.2691 63.9821 40.5034 63.7445 40.7995 63.6193C41.0956 63.4942 41.4292 63.4918 41.7271 63.6127C42.0249 63.7336 42.2626 63.9678 42.3877 64.2639C43.2495 66.5786 47.5442 66.0124 47.4801 63.4911C47.4801 61.9848 46.5934 61.2192 44.8413 61.2192C43.6135 61.3797 42.3722 61.046 41.3905 60.2913C40.4088 59.5366 39.7671 58.4229 39.6065 57.1951C39.4459 55.9673 39.7797 54.726 40.5344 53.7443C41.289 52.7626 42.4027 52.1209 43.6305 51.9603V51.9674Z"
                                fill="#161616" />
		</symbol>
<symbol viewBox="0 0 24 24" id="vec1"><path
                                        d="M17.0828 5.65644C17.0828 4.95569 17.6518 4.38761 18.3537 4.38761C19.0556 4.38761 19.6246 4.95569 19.6246 5.65644C19.6246 6.35719 19.0556 6.92526 18.3537 6.92526C17.6518 6.92526 17.0828 6.35719 17.0828 5.65644Z"
                                        fill="black" />
                                    <path fill-rule="evenodd" clip-rule="evenodd"
                                        d="M11.9991 5.97364C8.66512 5.97364 5.96234 8.67199 5.96234 12.0006C5.96234 15.3292 8.66512 18.0275 11.9991 18.0275C15.3332 18.0275 18.036 15.3292 18.036 12.0006C18.036 8.67199 15.3332 5.97364 11.9991 5.97364ZM7.8687 12.0006C7.8687 9.72315 9.718 7.87688 11.9991 7.87688C14.2803 7.87688 16.1296 9.72315 16.1296 12.0006C16.1296 14.278 14.2803 16.1243 11.9991 16.1243C9.718 16.1243 7.8687 14.278 7.8687 12.0006Z"
                                        fill="black" />
                                    <path fill-rule="evenodd" clip-rule="evenodd"
                                        d="M18.6828 0.368705C14.2771 -0.122902 9.72292 -0.122902 5.31728 0.368705C2.76014 0.654026 0.695764 2.66513 0.395131 5.23137C-0.13171 9.72843 -0.13171 14.2716 0.395131 18.7687C0.695764 21.3349 2.76014 23.346 5.31728 23.6313C9.72292 24.1229 14.2771 24.1229 18.6828 23.6313C21.2399 23.346 23.3042 21.3349 23.6049 18.7687C24.1317 14.2716 24.1317 9.72843 23.6049 5.23137C23.3042 2.66513 21.2399 0.654026 18.6828 0.368705ZM5.52902 2.26016C9.79396 1.78427 14.206 1.78427 18.471 2.26016C20.1615 2.44878 21.5155 3.78057 21.7115 5.45246C22.2211 9.80266 22.2211 14.1974 21.7115 18.5475C21.5155 20.2195 20.1615 21.5512 18.471 21.7399C14.206 22.2157 9.79396 22.2157 5.52902 21.7399C3.83858 21.5512 2.48444 20.2195 2.28858 18.5475C1.77895 14.1974 1.77895 9.80266 2.28858 5.45246C2.48444 3.78057 3.83858 2.44878 5.52902 2.26016Z"
                                        fill="black" /></symbol>
<symbol viewBox="0 0 28 24" id="vec2"> <path fill-rule="evenodd" clip-rule="evenodd"
                                        d="M5.91301 14.5371C5.97209 14.5571 6.03172 14.5711 6.09131 14.5798C6.15629 14.7326 6.24023 14.9301 6.33818 15.161C6.5772 15.7247 6.89926 16.4872 7.23168 17.2825C7.90963 18.9046 8.59347 20.5767 8.7445 21.0553C8.93147 21.6469 9.1291 22.0492 9.34484 22.3239C9.4564 22.4659 9.58542 22.5898 9.73638 22.6837C9.81238 22.731 9.89267 22.7697 9.97646 22.7986C9.98015 22.8 9.98383 22.8012 9.98752 22.8024C10.4195 22.9655 10.8133 22.8976 11.0599 22.8145C11.1918 22.77 11.2986 22.7164 11.3742 22.6729C11.4128 22.6507 11.4454 22.63 11.4714 22.6125L11.4775 22.6084L15.2924 20.2294L19.6989 23.6077C19.764 23.6575 19.8349 23.6994 19.9101 23.7322C20.4395 23.9631 20.952 24.0437 21.4343 23.9778C21.9156 23.9121 22.2979 23.7099 22.5825 23.4822C22.8611 23.2593 23.0499 23.0096 23.1676 22.8241C23.2277 22.7294 23.2728 22.6455 23.3045 22.5814C23.3205 22.5492 23.3334 22.5214 23.3432 22.4991L23.356 22.4697L23.3608 22.4581L23.3628 22.4532L23.3637 22.4509L23.3645 22.4487C23.3878 22.3908 23.4054 22.3309 23.4176 22.2698L27.4405 1.98795C27.4533 1.92309 27.4598 1.85711 27.4598 1.79098C27.4598 1.19704 27.236 0.632273 26.7098 0.289565C26.2601 -0.00334768 25.759 -0.015955 25.4423 0.00807192C25.1008 0.0340021 24.7854 0.118326 24.5736 0.185696C24.4634 0.220764 24.3711 0.254591 24.3046 0.2804C24.2711 0.293372 24.2436 0.304508 24.2232 0.312998L24.2078 0.31945L1.64716 9.16966L1.64424 9.17074C1.62986 9.176 1.6114 9.18289 1.58946 9.19139C1.54578 9.2084 1.48724 9.23229 1.41887 9.26334C1.28554 9.32381 1.09848 9.41816 0.906517 9.54964C0.599849 9.75967 -0.105423 10.3348 0.0133351 11.2842C0.10808 12.0416 0.626927 12.5067 0.943043 12.7304C1.11662 12.8532 1.28153 12.9409 1.40162 12.9982C1.45733 13.0246 1.57301 13.0716 1.6232 13.0921L1.63587 13.0973L5.91301 14.5371ZM24.9974 2.18383L24.9942 2.18521C24.983 2.1901 24.9716 2.19477 24.9603 2.19925L2.37222 11.0602C2.36042 11.0648 2.34854 11.0693 2.33658 11.0735L2.32401 11.0782C2.30956 11.0839 2.28523 11.0937 2.2547 11.1075C2.23738 11.1153 2.21931 11.1239 2.20088 11.1331C2.2262 11.1474 2.25042 11.1597 2.27195 11.17C2.29262 11.1798 2.30838 11.1866 2.31701 11.1901L6.55902 12.6182C6.63666 12.6444 6.70904 12.6789 6.77548 12.7208L20.7823 4.52123L20.7954 4.51348C20.8057 4.50744 20.819 4.4997 20.8351 4.49061C20.867 4.47259 20.9108 4.44861 20.9629 4.42208C21.0601 4.37261 21.2156 4.29917 21.3908 4.24501C21.5128 4.20731 21.8726 4.10109 22.2615 4.22583C22.5015 4.30281 22.75 4.46831 22.9115 4.74867C22.9919 4.88796 23.0346 5.02788 23.0553 5.15597C23.1104 5.35774 23.1017 5.55699 23.0587 5.729C22.9658 6.09954 22.7054 6.38857 22.4685 6.60964C22.2656 6.79917 19.6397 9.33123 17.0492 11.8308C15.7573 13.0773 14.4786 14.3116 13.5229 15.234L12.8951 15.8401L20.8213 21.9168C21.003 21.9818 21.1105 21.9786 21.1603 21.9717C21.2195 21.9636 21.268 21.9408 21.3175 21.9012C21.3729 21.857 21.4213 21.797 21.4575 21.7399L21.459 21.7376L25.3607 2.06662C25.3028 2.08053 25.2442 2.09711 25.1878 2.11506C25.1238 2.1354 25.0711 2.15479 25.0362 2.16832C25.0189 2.17503 25.0065 2.18012 24.9997 2.18293L24.9974 2.18383ZM13.5761 18.9135L11.9948 17.7011L11.6116 20.1385L13.5761 18.9135ZM10.5442 15.2955L12.1167 13.7773C13.0725 12.8547 14.3513 11.6204 15.6433 10.3737L16.956 9.1073L8.15506 14.2593L8.20228 14.3707C8.44214 14.9364 8.76564 15.7022 9.09983 16.5018C9.34973 17.0996 9.61104 17.7292 9.84905 18.3121L10.2311 15.8818C10.2679 15.6475 10.3824 15.4447 10.5442 15.2955Z"
                                        fill="black" /></symbol>
<symbol viewBox="0 0 23 24" id="vec3"><path
                                        d="M6.99926 4.98039C6.78671 4.94933 6.56992 4.992 6.38499 5.10129H6.36922C5.93987 5.35296 5.5531 5.67105 5.22329 6.04372C4.94919 6.36062 4.8005 6.68127 4.76146 6.98991C4.73818 7.17389 4.75394 7.35787 4.80877 7.53359L4.82829 7.5456C5.13693 8.45274 5.54019 9.32533 6.0328 10.1468C6.66736 11.301 7.44829 12.3684 8.35621 13.3226L8.38324 13.3616L8.42605 13.3932L8.45308 13.4247L8.48462 13.4518C9.44229 14.3623 10.5122 15.1469 11.6686 15.7864C12.9903 16.5058 13.7923 16.846 14.2736 16.9872V16.9947C14.4148 17.0375 14.5432 17.057 14.6724 17.057C15.0826 17.027 15.471 16.8604 15.7755 16.5839C16.1465 16.254 16.461 15.8657 16.7067 15.4343V15.4267C16.9372 14.9927 16.8591 14.5819 16.5265 14.3041C15.8602 13.7217 15.1398 13.2045 14.375 12.7594C13.8628 12.4815 13.3425 12.6498 13.1315 12.9314L12.6817 13.4984C12.4511 13.7799 12.0321 13.7408 12.0321 13.7408L12.02 13.7484C8.89538 12.9501 8.06185 9.78639 8.06185 9.78639C8.06185 9.78639 8.02279 9.35614 8.31191 9.13684L8.8751 8.68328C9.1447 8.464 9.33244 7.94435 9.04331 7.43146C8.60132 6.66562 8.0852 5.94501 7.50239 5.28001C7.37497 5.12324 7.19622 5.01657 6.99776 4.97889L6.99926 4.98039Z"
                                        fill="black" />
                                    <path
                                        d="M12.2806 3.60496C11.9646 3.60496 11.7084 3.86112 11.7084 4.17711C11.7084 4.49309 11.9646 4.74925 12.2806 4.74925C13.7275 4.74925 14.9298 5.22221 15.8797 6.12783C16.3687 6.62376 16.7492 7.21079 16.9992 7.85318C17.25 8.49799 17.3641 9.18556 17.3348 9.8743C17.3214 10.19 17.5664 10.4567 17.8821 10.4701C18.1978 10.4836 18.4647 10.2385 18.478 9.92281C18.5141 9.07558 18.3736 8.23024 18.0655 7.43833C17.7575 6.64646 17.2887 5.92486 16.6878 5.31737L16.6764 5.30636C15.4977 4.17921 14.0038 3.60496 12.2806 3.60496Z"
                                        fill="black" />
                                    <path
                                        d="M12.2403 5.48678C11.9244 5.48678 11.6682 5.74294 11.6682 6.05893C11.6682 6.37491 11.9244 6.63107 12.2403 6.63107H12.259C13.3032 6.70465 14.0628 7.05267 14.5955 7.62395C15.1408 8.2123 15.4232 8.94307 15.4022 9.84729C15.3949 10.1631 15.6452 10.4252 15.961 10.4325C16.2769 10.4398 16.539 10.1897 16.5463 9.87372C16.5738 8.68655 16.1919 7.66282 15.4342 6.84542L15.4331 6.84434C14.6589 6.01349 13.5967 5.57395 12.317 5.48806L12.2979 5.48678H12.2403Z"
                                        fill="black" />
                                    <path
                                        d="M12.219 7.40293C11.9034 7.38632 11.6342 7.62865 11.6176 7.9442C11.601 8.25977 11.8434 8.52903 12.1588 8.54564C12.638 8.57085 12.9433 8.71454 13.1353 8.90843C13.3282 9.10315 13.4724 9.41496 13.4987 9.9038C13.5157 10.2194 13.7852 10.4614 14.1008 10.4444C14.4163 10.4274 14.6583 10.1579 14.6414 9.84235C14.6044 9.15577 14.3895 8.54876 13.9484 8.10324C13.5064 7.6569 12.9027 7.43892 12.219 7.40293Z"
                                        fill="black" />
                                    <path fill-rule="evenodd" clip-rule="evenodd"
                                        d="M5.9717 0.61045C9.61291 -0.203483 13.389 -0.203483 17.0302 0.61045L17.4182 0.697164C19.5887 1.18233 21.3017 2.84707 21.8488 5.00276C22.773 8.64486 22.773 12.4602 21.8488 16.1022C21.3017 18.2579 19.5886 19.9227 17.4182 20.4078L17.0302 20.4946C14.743 21.0058 12.4026 21.1959 10.0758 21.0649L7.03974 23.7813C6.80662 23.9899 6.47846 24.0551 6.18329 23.9516C5.88812 23.848 5.67269 23.5921 5.62104 23.2834L5.11891 20.2839C3.17089 19.6786 1.66054 18.1015 1.15316 16.1022C0.228894 12.4602 0.228894 8.64487 1.15316 5.00277C1.70021 2.84707 3.41328 1.18233 5.58375 0.697164L5.9717 0.61045ZM16.6558 2.28554C13.2611 1.52673 9.74084 1.52673 6.34613 2.28554L5.95818 2.37226C4.41931 2.71624 3.20472 3.89655 2.81685 5.42497C1.96291 8.78998 1.96291 12.315 2.81685 15.68C3.20472 17.2084 4.4193 18.3887 5.95818 18.7327L6.06067 18.7556C6.40154 18.8318 6.66222 19.107 6.71989 19.4516L7.05662 21.4631L9.19916 19.5461C9.37215 19.3912 9.60043 19.3132 9.83204 19.3296C12.1132 19.491 14.4119 19.321 16.6558 18.8194L17.0437 18.7327C18.5827 18.3887 19.7972 17.2084 20.1851 15.6801C21.039 12.315 21.039 8.78998 20.1851 5.42497C19.7972 3.89655 18.5827 2.71624 17.0437 2.37226L16.6558 2.28554Z"
                                        fill="black" /></symbol>
                                        <symbol viewBox="0 0 155 28" id="amelia"><path d="M22.104 27.036L24.876 25.02L13.752 0.467998L11.448 2.16L10.98 2.484L11.124 2.88L0.468 26.856L0.972 27.072L3.996 20.268C8.892 20.16 13.176 18.252 18 18.036L22.104 27.036ZM4.248 19.692L11.448 3.564L17.748 17.496C13.104 17.748 8.964 19.548 4.248 19.692ZM48.4546 6.732C45.6826 6.732 43.7026 8.244 43.0546 10.62C42.2626 8.136 40.1386 6.732 36.6106 6.732C34.4866 6.624 32.4706 7.812 31.5346 9.72V7.308L28.1866 7.884V27L31.5346 26.46V12.924C31.5346 9.576 33.2266 7.308 36.0346 7.308C38.8786 7.308 39.9946 10.116 39.9946 12.924V27L43.3786 26.46V12.924C43.3786 9.576 45.0706 7.308 47.8786 7.308C50.6866 7.308 51.8026 10.116 51.8026 12.924V27L55.1866 26.46V12.924C55.1866 9 52.9546 6.732 48.4546 6.732ZM70.6163 26.46C67.2683 26.46 62.7323 23.652 62.7323 16.884V16.848C67.4483 16.704 71.5163 14.616 76.2683 14.616H79.4363C79.1123 12.168 77.7443 9.936 75.6923 8.496C75.6562 8.46 75.5843 8.424 75.5123 8.388C75.4043 8.316 75.2963 8.244 75.1523 8.172C75.0443 8.1 74.9363 8.064 74.8283 7.992C74.7203 7.92 74.5763 7.848 74.4323 7.776C74.3243 7.74 74.2163 7.704 74.1083 7.632C73.9643 7.596 73.8203 7.524 73.7123 7.488C73.5683 7.416 73.4603 7.38 73.3163 7.344C73.2083 7.308 73.0643 7.236 72.9203 7.2C72.7763 7.164 72.6323 7.128 72.5243 7.092C72.3803 7.056 72.2363 7.056 72.0923 7.02C71.9483 6.984 71.8043 6.948 71.6603 6.912C71.5163 6.912 71.4083 6.876 71.2643 6.876C71.0843 6.84 70.9043 6.84 70.7243 6.804C70.6163 6.804 70.5083 6.768 70.4003 6.768C70.1123 6.768 69.7883 6.732 69.5003 6.732C63.8843 6.732 59.3843 10.116 59.3843 16.884C59.3843 17.28 59.3843 17.64 59.4203 18C59.8883 24.012 64.2083 27.036 69.5003 27.036C71.8403 27.036 75.1163 25.884 76.8083 24.192L76.2683 23.076C75.0083 25.02 72.9203 26.28 70.6163 26.46ZM68.3843 7.308C68.6003 7.308 68.8523 7.308 69.1043 7.344C69.1403 7.344 69.2123 7.38 69.2843 7.38C69.5003 7.416 69.6803 7.452 69.8963 7.488C69.9323 7.488 70.0043 7.524 70.0403 7.524C70.2923 7.596 70.5443 7.668 70.7963 7.776C70.8323 7.776 70.9043 7.812 70.9403 7.812C71.1563 7.92 71.3723 7.992 71.5523 8.1C71.6243 8.136 71.6963 8.172 71.7323 8.208C71.9843 8.316 72.2363 8.46 72.4883 8.64C72.7403 8.82 72.9563 9 73.1723 9.18C73.2083 9.216 73.2803 9.288 73.3523 9.324C73.5323 9.504 73.7123 9.684 73.8563 9.864C73.9283 9.9 73.9643 9.972 74.0003 10.008C74.1803 10.26 74.3963 10.476 74.5763 10.764C75.2243 11.772 75.6923 12.888 75.9443 14.076C71.3363 14.148 67.3403 16.128 62.7683 16.308C62.8403 11.952 64.0643 7.308 68.3843 7.308ZM79.4362 0.539999L79.9762 1.116C81.0923 1.116 82.7843 1.692 82.7843 5.616V27L86.1683 26.46V5.616C86.1683 1.692 82.7843 0.539999 79.4362 0.539999ZM91.4318 27.036L94.7798 26.46V7.308L91.4318 7.884V27.036ZM93.0878 5.616C94.0238 5.616 94.7798 4.86 94.7798 3.924C94.7798 2.988 94.0238 2.232 93.0878 2.232C92.1878 2.232 91.4318 2.988 91.4318 3.924C91.4318 4.86 92.1878 5.616 93.0878 5.616ZM116.03 7.308V8.928C114.086 7.452 111.71 6.66 109.262 6.732C103.646 6.732 99.146 10.116 99.146 16.884C99.146 23.652 103.646 27 109.262 27C111.71 27.072 114.086 26.316 116.03 24.84V27L119.414 26.46V6.732L116.03 7.308ZM110.378 26.46C106.994 26.46 102.494 23.652 102.494 16.884C102.494 12.384 103.646 7.308 108.146 7.308C111.134 7.452 113.978 8.748 116.03 10.944V23.364C114.734 25.2 112.646 26.352 110.378 26.46ZM150.9 1.116H140.172V0.539999L136.824 1.116V27L140.172 26.46V14.04C143.7 13.824 146.76 11.808 150.324 11.808V11.232C146.76 11.232 143.7 13.284 140.172 13.464V1.692H150.9V3.348L154.248 2.808V0.539999L150.9 1.116Z" fill="#161616"/></symbol>
	</svg>